<svg width="326" height="326" viewBox="0 0 326 326" fill="none" xmlns="http://www.w3.org/2000/svg">
<path d="M122.251 298.835C129.753 298.835 135.835 292.753 135.835 285.251C135.835 277.749 129.753 271.668 122.251 271.668C114.749 271.668 108.668 277.749 108.668 285.251C108.668 292.753 114.749 298.835 122.251 298.835Z" stroke="black" stroke-opacity="0.05" stroke-width="25" stroke-linecap="round" stroke-linejoin="round"/>
<path d="M271.665 298.835C279.167 298.835 285.249 292.753 285.249 285.251C285.249 277.749 279.167 271.668 271.665 271.668C264.163 271.668 258.082 277.749 258.082 285.251C258.082 292.753 264.163 298.835 271.665 298.835Z" stroke="black" stroke-opacity="0.05" stroke-width="25" stroke-linecap="round" stroke-linejoin="round"/>
<path d="M13.582 13.582H67.9154L104.319 195.463C105.561 201.717 108.963 207.334 113.93 211.332C118.896 215.33 125.111 217.454 131.485 217.332H263.515C269.89 217.454 276.105 215.33 281.071 211.332C286.038 207.334 289.44 201.717 290.682 195.463L312.415 81.4987H81.4987" stroke="black" stroke-opacity="0.05" stroke-width="25" stroke-linecap="round" stroke-linejoin="round"/>
</svg>
