<svg width="326" height="326" viewBox="0 0 326 326" fill="none" xmlns="http://www.w3.org/2000/svg">
<g opacity="0.18">
<path d="M122.25 298.834C129.752 298.834 135.833 292.752 135.833 285.25C135.833 277.748 129.752 271.667 122.25 271.667C114.748 271.667 108.667 277.748 108.667 285.25C108.667 292.752 114.748 298.834 122.25 298.834Z" stroke="#F6D6D5" stroke-width="25" stroke-linecap="round" stroke-linejoin="round"/>
<path d="M271.667 298.834C279.169 298.834 285.25 292.752 285.25 285.25C285.25 277.748 279.169 271.667 271.667 271.667C264.165 271.667 258.083 277.748 258.083 285.25C258.083 292.752 264.165 298.834 271.667 298.834Z" stroke="#F6D6D5" stroke-width="25" stroke-linecap="round" stroke-linejoin="round"/>
<path d="M13.5833 13.583H67.9166L104.32 195.464C105.562 201.718 108.964 207.335 113.931 211.333C118.897 215.331 125.112 217.455 131.487 217.333H263.517C269.891 217.455 276.106 215.331 281.072 211.333C286.039 207.335 289.441 201.718 290.683 195.464L312.417 81.4997H81.4999" stroke="#F6D6D5" stroke-width="25" stroke-linecap="round" stroke-linejoin="round"/>
</g>
</svg>
