<svg width="39" height="39" viewBox="0 0 39 39" fill="none" xmlns="http://www.w3.org/2000/svg">
<rect y="0.750854" width="39" height="37.4706" rx="10" fill="#7B3F3F" fill-opacity="0.5"/>
<path fill-rule="evenodd" clip-rule="evenodd" d="M10.7061 15.7321C10.7061 15.1946 11.1625 14.7589 11.7257 14.7589H26.51C27.0731 14.7589 27.5296 15.1946 27.5296 15.7321V27.8979C27.5296 29.3761 26.2742 30.5744 24.7257 30.5744H13.51C11.9614 30.5744 10.7061 29.3761 10.7061 27.8979V15.7321ZM22.6864 18.6519C22.2641 18.6519 21.9217 18.3251 21.9217 17.922V13.299C21.9217 11.8208 20.6664 10.6225 19.1178 10.6225C17.5692 10.6225 16.3139 11.8208 16.3139 13.299V17.922C16.3139 18.3251 15.9715 18.6519 15.5492 18.6519C15.1269 18.6519 14.7845 18.3251 14.7845 17.922V13.299C14.7845 11.0145 16.7246 9.1626 19.1178 9.1626C21.511 9.1626 23.4512 11.0145 23.4512 13.299V17.922C23.4512 18.3251 23.1088 18.6519 22.6864 18.6519Z" fill="white"/>
<path d="M26.3153 31.2778V25.2438H27.8409V31.2778H26.3153ZM24.0611 29.0236V27.498H30.0952V29.0236H24.0611Z" fill="#8C4545"/>
</svg>
