<svg width="24" height="22" viewBox="0 0 24 22" fill="none" xmlns="http://www.w3.org/2000/svg">
<path fill-rule="evenodd" clip-rule="evenodd" d="M12 5.29033L10.3661 3.75176C9.51388 2.94932 8.38902 2.4902 7.15 2.4902C4.53234 2.4902 2.4 4.65227 2.4 7.29224C2.4 8.2147 2.78352 9.38775 3.6239 10.7741C4.44854 12.1345 5.59825 13.5119 6.8461 14.7935C8.85756 16.8592 10.9704 18.5209 11.9901 19.2859C13.0096 18.4743 15.1326 16.7109 17.1541 14.5852C18.407 13.2676 19.563 11.8709 20.3919 10.5263C21.2479 9.13783 21.6 8.05291 21.6 7.30236C21.6 4.65005 19.4655 2.4902 16.85 2.4902C15.611 2.4902 14.4861 2.94932 13.6339 3.75176L12 5.29033ZM11.13 21.6579C9.99 20.8385 0 13.514 0 7.29224C0 3.30627 3.21 0.0588226 7.15 0.0588226C8.99 0.0588226 10.7 0.746756 12 1.97087C13.3 0.746756 15.01 0.0588226 16.85 0.0588226C20.79 0.0588226 24 3.30627 24 7.30236C24 12.9778 14.05 20.7676 12.91 21.6377C12.64 21.84 12.32 21.9412 12 21.9412C11.69 21.9412 11.39 21.84 11.13 21.6579Z" fill="black"/>
</svg>
