<svg width="23" height="23" viewBox="0 0 23 23" fill="none" xmlns="http://www.w3.org/2000/svg">
<g clip-path="url(#clip0_308_818)">
<path d="M8.62533 21.0833C9.1546 21.0833 9.58366 20.6543 9.58366 20.125C9.58366 19.5957 9.1546 19.1667 8.62533 19.1667C8.09605 19.1667 7.66699 19.5957 7.66699 20.125C7.66699 20.6543 8.09605 21.0833 8.62533 21.0833Z" stroke="#3B3B3B" stroke-width="2.8" stroke-linecap="round" stroke-linejoin="round"/>
<path d="M19.1663 21.0833C19.6956 21.0833 20.1247 20.6543 20.1247 20.125C20.1247 19.5957 19.6956 19.1667 19.1663 19.1667C18.6371 19.1667 18.208 19.5957 18.208 20.125C18.208 20.6543 18.6371 21.0833 19.1663 21.0833Z" stroke="#3B3B3B" stroke-width="2.8" stroke-linecap="round" stroke-linejoin="round"/>
<path d="M1 1H4.63636L7.07273 13.497C7.15586 13.9267 7.38355 14.3127 7.71595 14.5874C8.04835 14.8621 8.46427 15.0081 8.89091 14.9997H17.7273C18.1539 15.0081 18.5698 14.8621 18.9022 14.5874C19.2346 14.3127 19.4623 13.9267 19.5455 13.497L21 5.66655H5.54545" stroke="#3B3B3B" stroke-width="2.8" stroke-linecap="round" stroke-linejoin="round"/>
</g>
<defs>
<clipPath id="clip0_308_818">
<rect width="23" height="23" fill="white"/>
</clipPath>
</defs>
</svg>
