<svg width="100" height="100" viewBox="0 0 100 100" fill="none" xmlns="http://www.w3.org/2000/svg">
<path d="M91.8672 70.1671V82.6671C91.8719 83.8275 91.6342 84.9761 91.1693 86.0394C90.7044 87.1026 90.0226 88.057 89.1675 88.8415C88.3124 89.626 87.3029 90.2233 86.2036 90.595C85.1043 90.9668 83.9395 91.1049 82.7838 91.0004C69.9623 89.6072 57.6463 85.226 46.8255 78.2087C36.7581 71.8115 28.2227 63.2761 21.8255 53.2087C14.7837 42.3388 10.4015 29.9629 9.03382 17.0837C8.9297 15.9315 9.06663 14.7702 9.4359 13.6738C9.80518 12.5774 10.3987 11.5699 11.1787 10.7155C11.9587 9.86104 12.908 9.17836 13.9663 8.71091C15.0246 8.24346 16.1686 8.00149 17.3255 8.0004H29.8255C31.8476 7.9805 33.808 8.69656 35.3412 10.0151C36.8744 11.3337 37.8758 13.1648 38.1588 15.1671C38.6864 19.1673 39.6649 23.0951 41.0755 26.8754C41.6361 28.3668 41.7574 29.9875 41.4251 31.5457C41.0928 33.1039 40.3207 34.5342 39.2005 35.6671L33.9088 40.9587C39.8403 51.3902 48.4774 60.0273 58.9088 65.9587L64.2005 60.6671C65.3334 59.5468 66.7636 58.7748 68.3218 58.4425C69.88 58.1101 71.5008 58.2315 72.9921 58.7921C76.7725 60.2027 80.7002 61.1811 84.7005 61.7087C86.7245 61.9943 88.573 63.0138 89.8944 64.5733C91.2158 66.1328 91.9179 68.1236 91.8672 70.1671Z" stroke="black" stroke-width="4" stroke-linecap="round" stroke-linejoin="round"/>
</svg>
