<svg width="66" height="66" viewBox="0 0 66 66" fill="none" xmlns="http://www.w3.org/2000/svg">
<path d="M8.25 16.5H13.75H57.75" stroke="#3B3B3B" stroke-width="5" stroke-linecap="round" stroke-linejoin="round"/>
<path d="M52.25 16.5V55C52.25 56.4587 51.6705 57.8576 50.6391 58.8891C49.6076 59.9205 48.2087 60.5 46.75 60.5H19.25C17.7913 60.5 16.3924 59.9205 15.3609 58.8891C14.3295 57.8576 13.75 56.4587 13.75 55V16.5M22 16.5V11C22 9.54131 22.5795 8.14236 23.6109 7.11091C24.6424 6.07946 26.0413 5.5 27.5 5.5H38.5C39.9587 5.5 41.3576 6.07946 42.3891 7.11091C43.4205 8.14236 44 9.54131 44 11V16.5" stroke="#3B3B3B" stroke-width="5" stroke-linecap="round" stroke-linejoin="round"/>
<path d="M27.5 30.25V46.75" stroke="#3B3B3B" stroke-width="5" stroke-linecap="round" stroke-linejoin="round"/>
<path d="M38.5 30.25V46.75" stroke="#3B3B3B" stroke-width="5" stroke-linecap="round" stroke-linejoin="round"/>
</svg>
